<?xml version="1.0" standalone="no"?>
<!DOCTYPE svg PUBLIC "-//W3C//DTD SVG 20010904//EN"
 "http://www.w3.org/TR/2001/REC-SVG-20010904/DTD/svg10.dtd">
<svg version="1.0" xmlns="http://www.w3.org/2000/svg"
 width="512.000000pt" height="512.000000pt" viewBox="0 0 512.000000 512.000000"
 preserveAspectRatio="xMidYMid meet">
<metadata>
Created by potrace 1.11, written by Peter Selinger 2001-2013
</metadata>
<g transform="translate(0.000000,512.000000) scale(0.100000,-0.100000)"
fill="#000000" stroke="none">
<path d="M2335 5094 c-66 -7 -149 -18 -185 -24 -36 -6 -74 -12 -85 -14 -179
-29 -472 -133 -685 -244 -243 -127 -404 -247 -620 -462 -385 -383 -635 -883
-705 -1410 -1 -8 -6 -44 -11 -80 -11 -82 -12 -505 -1 -585 13 -105 23 -170 32
-215 3 -14 8 -38 10 -55 3 -16 10 -44 16 -61 5 -17 11 -40 13 -50 17 -89 90
-291 156 -430 151 -319 394 -629 680 -864 96 -79 92 -76 180 -136 324 -221
691 -365 1065 -419 22 -4 51 -8 64 -10 57 -10 215 -18 331 -18 170 1 293 12
460 44 306 58 623 181 875 340 635 398 1044 1009 1160 1732 8 51 17 109 21
128 10 62 13 493 4 564 -5 39 -11 93 -15 120 -3 28 -8 57 -10 65 -2 8 -7 31
-10 50 -11 64 -64 264 -93 350 -244 713 -796 1273 -1519 1538 -168 62 -320
100 -553 137 -125 20 -420 25 -575 9z m515 -558 c58 -9 132 -23 165 -31 33 -8
70 -18 82 -20 118 -27 371 -142 510 -233 466 -306 772 -767 878 -1322 39 -202
39 -531 0 -740 -21 -111 -67 -281 -96 -347 -5 -13 -13 -33 -18 -45 -158 -377
-409 -685 -736 -903 -224 -150 -455 -247 -701 -295 -220 -43 -478 -46 -679 -9
-33 6 -69 12 -80 14 -100 16 -307 90 -448 161 -324 161 -640 458 -823 774
-112 192 -203 434 -238 635 -3 17 -8 41 -11 55 -14 72 -20 163 -20 330 0 227
5 269 51 480 106 475 413 914 844 1207 186 127 490 250 686 278 21 3 45 8 51
10 7 2 52 7 100 11 49 3 89 8 91 9 9 8 303 -6 392 -19z"/>
<path d="M2233 4138 c-298 -62 -598 -240 -812 -483 -24 -28 -53 -61 -65 -75
-108 -123 -248 -403 -297 -590 -19 -76 -19 -77 -38 -195 -11 -63 -7 -441 4
-510 23 -138 69 -281 134 -420 203 -429 596 -759 1037 -871 130 -32 193 -39
379 -39 185 0 245 7 374 41 351 92 652 297 877 597 211 281 313 599 312 972
-1 501 -215 957 -593 1264 -210 171 -494 296 -742 328 l-43 5 -1 -128 c0 -71
0 -439 0 -819 l0 -690 -49 -96 c-27 -53 -94 -175 -148 -270 -114 -202 -383
-672 -388 -678 -2 -3 -242 135 -322 185 -2 1 61 114 139 250 196 344 188 329
294 520 l95 171 0 419 c1 231 1 580 0 777 l0 357 -31 -2 c-17 -1 -69 -10 -116
-20z"/>
</g>
</svg>
