<svg enable-background="new 0 0 512 512" viewBox="0 0 512 512" xmlns="http://www.w3.org/2000/svg"><path d="m256 216.615c21.718 0 39.385 17.667 39.385 39.385s-17.667 39.385-39.385 39.385-39.385-17.667-39.385-39.385 17.667-39.385 39.385-39.385z" fill="#afb6bb"/><path d="m256 160.352c52.775 0 95.648 42.873 95.648 95.648s-42.873 95.648-95.648 95.648-95.648-42.873-95.648-95.648 42.873-95.648 95.648-95.648zm39.385 95.648c0-21.718-17.667-39.385-39.385-39.385s-39.385 17.667-39.385 39.385 17.667 39.385 39.385 39.385 39.385-17.667 39.385-39.385z" fill="#e7eced"/><path d="m503.56 205.363v101.275h-51.65c-4.726 18.567-12.04 36.009-21.605 52.1l36.571 36.459-71.68 71.68-36.459-36.571c-16.091 9.565-33.533 16.879-52.1 21.605v51.65h-101.274v-51.65c-18.567-4.726-36.009-12.04-52.1-21.605l-36.459 36.571-71.68-71.68 36.571-36.459c-9.565-16.091-16.879-33.533-21.605-52.1h-51.65v-101.275h51.65c4.726-18.567 12.04-36.009 21.605-52.1l-36.571-36.459 71.68-71.68 36.459 36.571c16.091-9.565 33.533-16.879 52.1-21.605v-51.65h101.275v51.65c18.567 4.726 36.009 12.04 52.1 21.605l36.459-36.571 71.68 71.68-36.571 36.459c9.565 16.091 16.879 33.533 21.605 52.1zm-151.912 50.637c0-52.775-42.873-95.648-95.648-95.648s-95.648 42.873-95.648 95.648 42.873 95.648 95.648 95.648 95.648-42.873 95.648-95.648z" fill="#7e8488"/><path d="m160.352 256c0-52.775 42.873-95.648 95.648-95.648v-151.912h-50.637v51.65c-18.567 4.726-36.009 12.04-52.1 21.605l-36.459-36.571-71.68 71.68 36.571 36.459c-9.565 16.091-16.879 33.533-21.605 52.1h-51.65v101.275h51.65c4.726 18.567 12.039 36.009 21.605 52.1l-36.571 36.459 71.68 71.68 36.459-36.571c16.091 9.565 33.533 16.879 52.1 21.605v51.65h50.637v-151.913c-52.775 0-95.648-42.873-95.648-95.648z" fill="#656b6e"/><path d="m315.077 512h-118.154v-53.638c-14.67-4.242-28.833-10.115-42.246-17.521l-37.863 37.98-83.634-83.633 37.98-37.863c-7.405-13.413-13.279-27.577-17.521-42.246h-53.639v-118.156h53.638c4.242-14.67 10.115-28.833 17.521-42.246l-37.98-37.863 83.634-83.634 37.863 37.98c13.413-7.405 27.577-13.279 42.246-17.521v-53.639h118.154v53.638c14.67 4.242 28.833 10.115 42.246 17.521l37.863-37.98 83.634 83.634-37.98 37.863c7.405 13.413 13.279 27.577 17.521 42.246h53.64v118.154h-53.638c-4.242 14.67-10.115 28.833-17.521 42.246l37.98 37.863-83.634 83.634-37.863-37.98c-13.413 7.405-27.577 13.279-42.246 17.521v53.64zm-101.275-16.879h84.396v-49.771l6.358-1.618c17.497-4.454 34.276-11.413 49.87-20.681l5.649-3.358 35.132 35.239 59.726-59.726-35.239-35.132 3.358-5.649c9.269-15.594 16.228-32.373 20.681-49.87l1.618-6.358h49.77v-84.396h-49.771l-1.618-6.358c-4.454-17.497-11.413-34.276-20.681-49.87l-3.358-5.649 35.239-35.132-59.726-59.726-35.132 35.239-5.649-3.358c-15.594-9.269-32.373-16.228-49.87-20.681l-6.357-1.616v-49.771h-84.396v49.771l-6.358 1.618c-17.497 4.454-34.276 11.413-49.87 20.681l-5.649 3.358-35.132-35.239-59.726 59.726 35.239 35.132-3.358 5.649c-9.269 15.594-16.228 32.373-20.681 49.87l-1.617 6.357h-49.771v84.396h49.771l1.618 6.358c4.454 17.497 11.413 34.276 20.681 49.87l3.358 5.649-35.239 35.132 59.726 59.726 35.132-35.239 5.649 3.358c15.594 9.269 32.373 16.228 49.87 20.681l6.358 1.618v49.77z"/><path d="m256 360.088c-57.395 0-104.088-46.693-104.088-104.088s46.693-104.088 104.088-104.088 104.088 46.693 104.088 104.088-46.693 104.088-104.088 104.088zm0-191.297c-48.086 0-87.209 39.122-87.209 87.209s39.122 87.209 87.209 87.209 87.209-39.122 87.209-87.209-39.123-87.209-87.209-87.209z"/><path d="m256 303.824c-26.371 0-47.824-21.453-47.824-47.824s21.453-47.824 47.824-47.824 47.824 21.453 47.824 47.824-21.453 47.824-47.824 47.824zm0-78.769c-17.064 0-30.945 13.881-30.945 30.945s13.881 30.945 30.945 30.945 30.945-13.881 30.945-30.945-13.881-30.945-30.945-30.945z"/><g fill="#fff"><path d="m30.945 247.56h22.505v16.879h-22.505z"/><path d="m458.549 247.56h22.505v16.879h-22.505z"/><path d="m244.747 33.758h22.505v16.879h-22.505z"/><path d="m244.747 461.363h22.505v16.879h-22.505z"/><path d="m112.527 256h-16.879c0-88.418 71.933-160.352 160.352-160.352v16.879c-79.111 0-143.473 64.362-143.473 143.473z"/><path d="m256 416.352v-16.879c79.111 0 143.473-64.361 143.473-143.473h16.879c0 88.418-71.934 160.352-160.352 160.352z"/></g></svg>
